PathFileType	4	(X/Y/Z)	/Users/itak/Documents/Research/Walk-IL/dataset/trc/00456_00167.trc
DataRate	CameraRate	NumFrames	NumMarkers	Units	OrigDataRate	OrigDataStartFrame	OrigNumFrames
100.000000	100.000000	4	53	mm	100.000000	256	512
Frame#	Time	RPSI			LPSI			L3			STRN			T10			C7			CLAV			RBAK			LBAK			LSHO			LUPA			LAEL			LAOL			LWTS			LWPS			LFRA			LHPS			LHTS			RSHO			RUPA			RAEL			RAOL			RWTS			RWPS			RFRA			RIFD			RHTS			RHPS			RBHD			LFHD			RFHD			LBHD			LHIP			RHIP			RASI			LASI			LKNE			LTHI			LANK			LTIP			LTOE			LMT1			LMT5			LHEE			RKNE			RTHI			RANK			RTIP			RTOE			RMT1			RMT5			RHEE			LIFD			
		X1	Y1	Z1	X2	Y2	Z2	X3	Y3	Z3	X4	Y4	Z4	X5	Y5	Z5	X6	Y6	Z6	X7	Y7	Z7	X8	Y8	Z8	X9	Y9	Z9	X10	Y10	Z10	X11	Y11	Z11	X12	Y12	Z12	X13	Y13	Z13	X14	Y14	Z14	X15	Y15	Z15	X16	Y16	Z16	X17	Y17	Z17	X18	Y18	Z18	X19	Y19	Z19	X20	Y20	Z20	X21	Y21	Z21	X22	Y22	Z22	X23	Y23	Z23	X24	Y24	Z24	X25	Y25	Z25	X26	Y26	Z26	X27	Y27	Z27	X28	Y28	Z28	X29	Y29	Z29	X30	Y30	Z30	X31	Y31	Z31	X32	Y32	Z32	X33	Y33	Z33	X34	Y34	Z34	X35	Y35	Z35	X36	Y36	Z36	X37	Y37	Z37	X38	Y38	Z38	X39	Y39	Z39	X40	Y40	Z40	X41	Y41	Z41	X42	Y42	Z42	X43	Y43	Z43	X44	Y44	Z44	X45	Y45	Z45	X46	Y46	Z46	X47	Y47	Z47	X48	Y48	Z48	X49	Y49	Z49	X50	Y50	Z50	X51	Y51	Z51	X52	Y52	Z52	X53	Y53	Z53	

257	2.56	-121.7140731811523	948.4174194335938	-785.5166015625	-8.956117630004883	954.3328247070312	-872.06396484375	-54.24897003173828	1054.043701171875	-815.016845703125	107.7958602905273	1246.799072265625	-590.6547241210938	-51.52130508422852	1177.61474609375	-831.0282592773438	-22.42537498474121	1445.200927734375	-763.128662109375	88.30162811279297	1360.732421875	-618.4105834960938	-134.6879119873047	1325.161376953125	-772.1299438476562	43.11392211914062	1398.994506835938	-844.9793701171875	164.0167083740234	1426.321411132812	-803.02392578125	251.6672973632812	1320.572143554688	-868.7045288085938	322.1882629394531	1116.620849609375	-886.6124877929688	228.5876159667969	1091.601318359375	-923.0983276367188	359.9195556640625	905.7230224609375	-828.7108764648438	382.0422973632812	907.7889404296875	-899.8458862304688	353.9410400390625	1031.850219726562	-886.5798950195312	402.9606323242188	833.4439086914062	-907.46435546875	395.6043090820312	825.0750732421875	-836.447998046875	-124.2565078735352	1413.016235351562	-625.598388671875	-200.1608734130859	1353.284912109375	-610.86962890625	-265.9414672851562	1070.849243164062	-600.721923828125	-251.2748413085938	1053.413452148438	-664.4814453125	-173.7904357910156	870.6282958984375	-524.8160400390625	-255.5475311279297	852.3215942382812	-553.7622680664062	-271.8954772949219	1012.142822265625	-591.1779174804688	-173.3601226806641	714.2463989257812	-517.2710571289062	-174.0284118652344	773.2697143554688	-504.0062255859375	-241.1327667236328	766.04736328125	-540.0499267578125	-56.97464370727539	1635.393432617188	-648.7242431640625	140.5923614501953	1658.035400390625	-592.8262329101562	22.56385612487793	1651.053833007812	-537.3236083984375	95.56050109863281	1649.185913085938	-738.6414794921875	161.3882446289062	854.7606811523438	-842.80810546875	-146.4941558837891	867.08544921875	-584.0321044921875	-36.70806121826172	915.0586547851562	-565.9658813476562	168.8342742919922	892.71484375	-716.0052490234375	133.3389129638672	439.1354675292969	-838.9851684570312	168.0186767578125	592.1537475585938	-822.0671997070312	34.64394760131836	39.65266036987305	-943.6427001953125	122.3404922485352	289.9465942382812	-874.7548828125	171.4426574707031	40.86030578613281	-739.8711547851562	94.95030975341797	46.49213027954102	-765.4381103515625	166.5919342041016	40.14091873168945	-858.2594604492188	-41.29981994628906	42.40100479125977	-918.7098388671875	-7.225013732910156	525.7454833984375	-437.6497192382812	-94.38410186767578	760.4917602539062	-506.348876953125	-68.85317230224609	137.1132049560547	-639.9226684570312	-24.11469268798828	382.1948852539062	-479.8152160644531	78.91135406494141	70.43769836425781	-493.1629333496094	77.97945404052734	98.92272186279297	-559.5748901367188	-21.75193023681641	93.498046875	-524.6576538085938	-58.56433868408203	162.3629455566406	-715.3597412109375	402.1004028320312	744.217529296875	-860.9310913085938	
258	2.57	-117.932373046875	947.7452392578125	-784.2261962890625	-4.08210277557373	953.7482299804688	-869.21435546875	-50.11094284057617	1053.373168945312	-812.7272338867188	109.1989440917969	1245.896606445312	-586.070556640625	-47.22013092041016	1176.969360351562	-828.5657348632812	-19.17925262451172	1444.376220703125	-759.80908203125	89.96646118164062	1359.866333007812	-613.8854370117188	-131.1245727539062	1324.249145507812	-770.20947265625	47.4632682800293	1398.413330078125	-840.9378662109375	167.7387390136719	1425.823608398438	-797.4779663085938	256.4414672851562	1320.5166015625	-862.3057250976562	328.5482482910156	1117.146850585938	-879.4877319335938	235.5542144775391	1091.4619140625	-917.0064086914062	367.1518859863281	906.7232055664062	-820.8432006835938	390.0997924804688	908.799560546875	-891.7115478515625	360.8937683105469	1032.599731445312	-878.9927978515625	411.9068298339844	834.7058715820312	-898.8411254882812	403.7994079589844	826.5177001953125	-827.8676147460938	-122.5586776733398	1411.982788085938	-623.5452880859375	-198.5808868408203	1352.203247070312	-609.6592407226562	-263.8434448242188	1069.518310546875	-600.5280151367188	-248.4993438720703	1052.2314453125	-664.1461181640625	-172.3416595458984	869.28271484375	-524.005126953125	-253.7755432128906	850.9727172851562	-553.924560546875	-269.8646545410156	1010.799865722656	-591.134033203125	-172.0555267333984	712.84716796875	-516.5911865234375	-172.8097229003906	771.8988647460938	-503.3455505371094	-239.8415069580078	764.719970703125	-539.6709594726562	-55.54972457885742	1634.269409179688	-646.0681762695312	141.32275390625	1657.70361328125	-588.1981201171875	22.72336769104004	1650.54833984375	-533.9142456054688	97.83180236816406	1648.2763671875	-734.4300537109375	165.7574005126953	854.0645141601562	-838.0335083007812	-144.5754547119141	866.7693481445312	-582.3189697265625	-35.61195373535156	914.369384765625	-563.5140380859375	171.7187194824219	891.7583618164062	-711.1409912109375	134.3580780029297	438.6670837402344	-837.30712890625	170.0081176757812	591.32861328125	-818.9849243164062	34.61309432983398	39.72050094604492	-943.6172485351562	122.9336700439453	289.677978515625	-873.7782592773438	171.4023590087891	40.86943054199219	-739.8142700195312	94.85726165771484	46.42295074462891	-765.4013061523438	166.5515747070312	40.18795013427734	-858.184814453125	-41.28998947143555	42.45018005371094	-918.71923828125	-8.596582412719727	524.3934326171875	-435.5270385742188	-94.40563201904297	759.6943359375	-504.9997863769531	-60.97811889648438	127.4735412597656	-624.340087890625	-23.13248825073242	379.2010192871094	-473.10498046875	83.74610900878906	68.24472808837891	-471.4060974121094	84.22553253173828	94.27410888671875	-538.8524780273438	-16.28809928894043	88.83684539794922	-506.3731689453125	-49.07916259765625	149.9781951904297	-700.4247436523438	411.4643249511719	745.6361694335938	-852.00634765625	
259	2.58	-114.1975784301758	947.0234375	-782.7265625	0.7053659558296204	953.1176147460938	-866.1915893554688	-46.07168197631836	1052.640380859375	-810.2314453125	110.5516815185547	1244.930297851562	-581.3765258789062	-43.03877258300781	1176.272216796875	-825.9126586914062	-16.04167556762695	1443.48486328125	-756.3040771484375	91.56747436523438	1358.935302734375	-609.2354736328125	-127.6263198852539	1323.26904296875	-768.0504150390625	51.67571258544922	1397.789306640625	-836.7245483398438	171.3070831298828	1425.292602539062	-791.822509765625	261.028564453125	1320.4150390625	-855.802001953125	334.6294555664062	1117.586059570312	-872.2081909179688	242.2198333740234	1091.269409179688	-910.6578369140625	374.0555419921875	907.628662109375	-812.7525024414062	397.7724304199219	909.6953735351562	-883.3650512695312	367.5510559082031	1033.266235351562	-871.2344360351562	420.3905334472656	835.8461303710938	-890.029052734375	411.5789794921875	827.83154296875	-819.1024169921875	-120.9148025512695	1410.89013671875	-621.2826538085938	-197.0379638671875	1351.074462890625	-608.2068481445312	-261.8231201171875	1068.173217773438	-600.1178588867188	-245.8137054443359	1051.038696289062	-663.5856323242188	-171.0941162109375	867.82958984375	-523.0359497070312	-252.1487731933594	849.5709228515625	-553.9973754882812	-267.9454040527344	1009.434753417969	-590.8845825195312	-170.9976043701172	711.3426513671875	-515.845947265625	-171.8437347412109	770.409423828125	-502.5574340820312	-238.7287902832031	763.3209228515625	-539.2644653320312	-54.18733215332031	1633.081420898438	-643.2179565429688	142.0100555419922	1657.29541015625	-583.4735107421875	22.88166427612305	1649.963989257812	-530.3480834960938	99.99955749511719	1647.30908203125	-730.0867919921875	170.0107879638672	853.3057250976562	-833.22216796875	-142.8358917236328	866.2127685546875	-580.7575073242188	-34.48934936523438	913.5552368164062	-560.9485473632812	174.5437164306641	890.7444458007812	-706.2249145507812	135.3224639892578	438.208984375	-835.6678466796875	171.9010162353516	590.5040283203125	-815.9188842773438	34.58388900756836	39.78547286987305	-943.60693359375	123.4936904907227	289.43212890625	-872.8245849609375	171.3411254882812	40.86659622192383	-739.7762451171875	94.74297332763672	46.34244537353516	-765.3805541992188	166.5110473632812	40.23458099365234	-858.1112670898438	-41.28189086914062	42.49165725708008	-918.7411499023438	-10.06622409820557	522.6596069335938	-433.7454223632812	-94.38437652587891	758.6956787109375	-503.6124877929688	-53.4079475402832	117.893310546875	-608.0243530273438	-22.3087329864502	376.0065612792969	-466.4154663085938	88.10758209228516	66.31332397460938	-449.3372192382812	90.01235961914062	89.90341949462891	-517.6965942382812	-11.20212650299072	84.25827026367188	-487.6447448730469	-39.89892578125	137.6973571777344	-684.6306762695312	420.2998046875	746.93310546875	-842.8839721679688	
260	2.59	-110.5028381347656	946.2557983398438	-781.002197265625	5.396672248840332	952.4415893554688	-862.9891357421875	-42.12654495239258	1051.841796875	-807.5220336914062	111.8592681884766	1243.895385742188	-576.5646362304688	-38.97472381591797	1175.509033203125	-823.0571899414062	-13.01379013061523	1442.517944335938	-752.6119384765625	93.10256958007812	1357.934936523438	-604.4536743164062	-124.2146072387695	1322.223999023438	-765.6631469726562	55.74555587768555	1397.10986328125	-832.3406982421875	174.7249298095703	1424.7177734375	-786.0520629882812	265.4354858398438	1320.251831054688	-849.1843872070312	340.4322509765625	1117.924438476562	-864.7800903320312	248.5881500244141	1091.002197265625	-904.0595703125	380.6402587890625	908.4271850585938	-804.4462280273438	405.05517578125	910.4566650390625	-874.820068359375	373.9159851074219	1033.83544921875	-863.3104248046875	428.3985290527344	836.8397216796875	-881.0392456054688	418.9412536621094	828.9940795898438	-810.163818359375	-119.3236541748047	1409.7294921875	-618.8020629882812	-195.5374908447266	1349.879638671875	-606.51806640625	-259.8949279785156	1066.809204101562	-599.4921264648438	-243.2137756347656	1049.82080078125	-662.8092651367188	-170.0496673583984	866.2646484375	-521.907470703125	-250.6638031005859	848.10498046875	-553.9678955078125	-266.1407775878906	1008.039428710938	-590.4345092773438	-170.1618194580078	709.7322387695312	-515.0418090820312	-171.1082916259766	768.7908935546875	-501.6520385742188	-237.7546234130859	761.846923828125	-538.8673095703125	-52.88552856445312	1631.828369140625	-640.1692504882812	142.6591796875	1656.8046875	-578.6483764648438	23.04036903381348	1649.293823242188	-526.62451171875	102.0646209716797	1646.277465820312	-725.6093139648438	174.1464385986328	852.4811401367188	-828.3778076171875	-141.3676452636719	865.3695678710938	-579.4608154296875	-33.34117126464844	912.6083374023438	-558.253662109375	177.3187103271484	889.6685180664062	-701.2506103515625	136.243896484375	437.758056640625	-834.0540161132812	173.7010803222656	589.6695556640625	-812.8651123046875	34.55211639404297	39.84433364868164	-943.611328125	124.0267181396484	289.2054138183594	-871.8849487304688	171.2568664550781	40.84894180297852	-739.7584838867188	94.61428833007812	46.25541305541992	-765.3754272460938	166.4571990966797	40.27793502807617	-858.0496826171875	-41.27645874023438	42.52928161621094	-918.7745971679688	-11.61828708648682	520.5458374023438	-432.3013000488281	-94.31568145751953	757.4969482421875	-502.188720703125	-46.14825439453125	108.4909286499023	-591.0516967773438	-21.63209342956543	372.6547546386719	-459.7743530273438	92.01876068115234	64.69850158691406	-427.0699462890625	95.3521728515625	85.883544921875	-496.219482421875	-6.487949371337891	79.84206390380859	-468.5525817871094	-31.05045890808105	125.6651306152344	-668.0471801757812	428.6096801757812	748.0833740234375	-833.56982421875	
